<?xml version="1.0" standalone="no"?>
<!DOCTYPE svg PUBLIC "-//W3C//DTD SVG 20010904//EN"
 "http://www.w3.org/TR/2001/REC-SVG-20010904/DTD/svg10.dtd">
<svg version="1.0" xmlns="http://www.w3.org/2000/svg"
 width="564.000000pt" height="590.000000pt" viewBox="0 0 564.000000 590.000000"
 preserveAspectRatio="xMidYMid meet">

<g transform="translate(0.000000,590.000000) scale(0.100000,-0.100000)"
fill="#000000" stroke="none">
<path d="M2972 5862 c-10 -15 -18 -52 -20 -93 l-4 -68 -87 -47 c-135 -73 -314
-200 -413 -293 -149 -140 -160 -196 -63 -316 17 -22 35 -52 39 -68 9 -37 71
-104 120 -130 l41 -21 -32 -9 c-40 -12 -44 -29 -32 -135 11 -98 31 -139 74
-150 27 -7 30 -13 33 -53 3 -35 11 -52 40 -82 35 -37 36 -39 17 -49 -11 -6
-46 -37 -78 -69 -32 -33 -62 -59 -66 -59 -5 0 -11 -9 -14 -20 -3 -14 -14 -20
-31 -20 -41 0 -138 -54 -179 -99 -50 -55 -75 -108 -102 -216 -28 -111 -81
-247 -142 -369 -56 -112 -67 -189 -35 -252 11 -21 28 -46 38 -56 30 -26 93
-48 140 -48 l43 0 -5 -332 c-4 -332 -11 -420 -50 -607 -9 -40 -25 -99 -35
-130 l-20 -56 23 -18 c72 -55 88 -79 88 -132 0 -27 -6 -84 -14 -125 -8 -41
-17 -128 -21 -192 -8 -140 4 -194 63 -284 47 -72 73 -136 107 -274 44 -174 68
-208 195 -272 32 -16 62 -34 68 -41 29 -37 16 -97 -33 -155 -23 -27 -31 -30
-79 -29 -40 1 -58 -4 -72 -18 -10 -10 -38 -27 -62 -38 -25 -10 -47 -28 -49
-38 -7 -26 -73 -59 -117 -59 -27 0 -44 -9 -82 -45 -42 -40 -46 -48 -40 -77 3
-17 13 -39 22 -49 27 -30 107 -57 189 -64 71 -6 98 -3 235 28 85 19 174 38
197 41 68 10 150 45 188 80 40 38 43 58 15 86 -11 11 -31 43 -45 72 -32 67
-35 147 -10 301 18 117 18 118 -1 144 -18 24 -19 31 -7 67 7 23 15 58 18 79
l6 38 65 -2 c65 -2 65 -2 80 -38 8 -20 26 -48 40 -62 29 -30 59 -131 73 -244
8 -62 7 -73 -10 -97 -26 -37 -24 -52 11 -110 26 -41 30 -58 30 -116 0 -37 -5
-73 -11 -79 -6 -6 -13 -44 -15 -84 -5 -64 -2 -80 18 -119 13 -26 37 -53 57
-64 68 -39 296 -30 368 14 29 17 31 21 23 56 -5 21 -22 56 -38 79 -16 22 -32
56 -35 73 -13 64 -78 176 -137 237 l-59 60 -6 117 c-5 86 -4 118 5 118 28 0
58 168 32 184 -5 3 4 42 19 88 27 82 37 162 21 172 -5 3 -8 139 -6 303 3 378
2 352 17 332 16 -21 57 -7 57 20 0 26 -27 271 -45 406 -41 315 -50 442 -48
688 l2 248 34 77 c19 42 42 102 51 132 33 119 98 336 106 357 14 34 4 115 -18
160 -12 22 -46 63 -75 89 -51 46 -55 52 -62 109 -8 67 -41 160 -90 250 -18 33
-44 96 -57 140 -21 71 -23 90 -16 165 10 101 1 130 -39 130 -27 0 -27 1 23 48
31 28 64 73 84 112 17 36 41 81 52 100 46 84 -24 216 -166 313 -46 32 -60 47
-58 63 5 35 -16 74 -53 95 -19 12 -35 27 -35 33 0 7 18 41 40 75 22 34 40 66
40 70 0 5 -10 11 -22 14 -13 4 -31 12 -42 20 -16 12 -17 16 -5 35 7 12 11 23
9 25 -3 2 -38 15 -78 30 l-73 25 -17 -26z m94 -17 c23 -10 35 -21 34 -32 -4
-36 1 -44 34 -60 l34 -16 -31 -63 c-33 -68 -46 -74 -40 -22 l3 33 -14 -30
c-12 -25 -15 -27 -21 -12 -7 17 -3 50 11 97 7 22 6 23 -9 12 -8 -7 -19 -26
-22 -42 -6 -28 -6 -28 -35 -12 -16 9 -31 26 -34 37 -8 27 -7 90 0 109 8 20 44
20 90 1z m-44 -195 c25 -22 29 -29 16 -30 -10 0 -18 -5 -18 -10 0 -6 10 -10
23 -9 38 3 57 -1 57 -12 0 -6 -9 -8 -20 -4 -25 8 -62 -3 -55 -16 4 -5 14 -5
26 2 12 6 22 9 25 7 6 -6 -160 -113 -173 -112 -7 1 -11 -1 -8 -5 2 -4 -57 -61
-132 -127 -126 -111 -232 -229 -217 -243 3 -3 25 17 47 44 143 176 403 384
523 419 42 13 74 -60 42 -92 -21 -21 -32 -13 -12 11 l19 22 -23 -19 c-12 -11
-20 -22 -17 -24 7 -7 -56 -72 -69 -72 -5 0 -1 10 10 22 10 12 -9 0 -43 -27
-35 -26 -63 -50 -63 -53 0 -2 7 1 15 8 9 7 18 10 21 8 5 -6 -49 -48 -61 -48
-4 0 -1 8 6 18 13 15 12 16 -3 3 -10 -7 -16 -17 -13 -21 4 -7 -98 -100 -111
-100 -4 0 1 10 12 23 17 20 16 20 -9 -2 -15 -14 -25 -27 -22 -29 7 -7 -26 -42
-35 -37 -4 2 -20 -10 -36 -28 -16 -18 -19 -24 -6 -13 12 11 22 15 22 9 0 -12
-45 -55 -52 -48 -2 3 -15 -7 -29 -23 l-24 -27 28 24 c15 14 27 20 27 15 0 -14
-55 -66 -62 -59 -3 3 -11 -3 -19 -12 -13 -16 -12 -17 4 -4 24 19 21 9 -15 -48
-30 -50 -31 -52 -13 -71 10 -11 16 -22 14 -25 -3 -2 -33 21 -68 53 -75 69 -97
118 -76 170 15 36 11 40 -16 16 -24 -22 -41 -14 -64 30 -17 32 -18 39 -6 73 7
21 31 61 51 89 37 49 199 196 285 259 22 16 63 45 90 66 66 48 144 89 172 89
13 0 37 -13 55 -30z m202 -250 c104 -44 186 -156 186 -254 l0 -50 -29 45 c-15
25 -54 67 -85 94 -30 27 -54 51 -51 53 3 3 15 -3 27 -14 l23 -19 -19 23 c-11
12 -26 20 -33 18 -15 -6 -84 24 -79 33 2 3 -7 6 -20 6 -37 0 -29 -11 29 -38
170 -79 253 -226 178 -320 l-28 -36 -6 49 c-11 91 -130 235 -232 282 -27 12
-53 24 -57 26 -5 2 -8 0 -8 -5 0 -5 19 -18 43 -30 143 -69 249 -257 208 -366
-9 -24 -48 -67 -60 -67 -4 0 -5 20 -3 44 3 30 -1 53 -12 68 -19 27 -21 42 -3
32 6 -4 9 -4 5 0 -3 4 -10 8 -15 7 -12 0 -53 41 -53 52 0 6 12 0 28 -14 27
-24 27 -24 -2 8 -16 18 -34 31 -40 30 -6 -1 -10 3 -9 9 1 6 -19 31 -45 55 -26
24 -36 32 -23 17 14 -16 20 -28 15 -28 -14 0 -66 55 -58 62 3 3 0 9 -7 14 -8
4 -10 3 -5 -4 14 -23 -10 -12 -37 16 l-27 28 77 70 c153 137 151 137 227 104z
m-189 -40 c-10 -11 -23 -20 -28 -20 -6 0 -2 9 8 20 10 11 23 20 28 20 6 0 2
-9 -8 -20z m-89 -226 c27 -15 69 -45 93 -68 24 -23 40 -34 36 -26 -4 8 7 -1
25 -20 53 -57 70 -105 63 -177 -3 -36 -11 -63 -17 -63 -6 0 -2 -7 8 -15 27
-21 29 -34 28 -164 -2 -93 -6 -119 -21 -145 -26 -41 -59 -70 -98 -85 -28 -11
-75 -61 -57 -61 4 0 1 -7 -6 -15 -18 -22 -52 -18 -96 11 l-39 26 26 -27 c19
-19 40 -29 73 -32 57 -7 61 -23 6 -23 -55 0 -95 22 -124 69 -19 29 -33 40 -60
45 -19 4 -50 19 -68 34 -25 20 -29 21 -14 4 24 -28 3 -29 -23 -1 -24 26 -34
77 -26 133 5 29 2 55 -9 80 -19 46 -20 83 -2 115 10 18 11 34 4 59 -13 45 -5
129 15 168 37 71 178 204 217 204 10 0 39 -12 66 -26z m140 -45 c19 -22 19
-22 -3 -10 -13 6 -23 16 -23 21 0 15 5 12 26 -11z m210 -294 c4 -9 3 -50 -1
-92 l-7 -77 -19 39 c-13 26 -16 42 -9 49 7 7 10 4 11 -9 0 -18 1 -18 11 2 13
27 3 73 -16 73 -7 0 -19 -14 -26 -31 -10 -22 -15 -27 -21 -17 -16 24 -9 47 19
62 35 20 51 20 58 1z m-688 -40 c3 -39 3 -39 -17 -21 -29 26 -39 13 -34 -46 5
-71 -14 -42 -23 34 -6 50 -5 55 17 65 40 20 54 12 57 -32z m-8 -137 c0 -35 -5
-60 -12 -64 -7 -4 -10 -4 -6 0 3 4 0 23 -8 43 -8 19 -10 32 -5 28 7 -4 11 9
11 37 0 31 3 39 10 28 5 -8 10 -41 10 -72z m660 20 c0 -10 6 -18 13 -18 8 0 7
-3 -3 -10 -16 -10 -36 13 -25 29 3 5 1 12 -5 16 -5 3 -10 14 -10 23 1 15 2 15
15 -2 8 -11 15 -28 15 -38z m39 -110 c7 -18 32 -67 56 -108 75 -135 95 -219
94 -389 0 -78 -5 -118 -18 -151 -17 -41 -21 -45 -50 -42 -25 3 -40 -4 -72 -33
-40 -36 -41 -36 -67 -19 -51 34 -82 45 -103 39 -12 -4 -18 -12 -15 -21 7 -18
5 -17 -43 2 -22 8 -41 21 -44 27 -8 23 24 122 69 214 48 97 69 192 57 265 -5
32 0 43 33 84 30 37 39 55 40 91 1 30 8 49 20 58 26 20 27 19 43 -17z m-554
-208 c4 -6 -3 -31 -14 -55 -26 -55 -41 -119 -34 -146 5 -19 3 -20 -14 -11 -11
6 -26 18 -33 27 -11 13 -9 20 15 45 35 36 19 40 -19 5 -26 -24 -28 -25 -51 -8
-14 10 -25 21 -25 25 0 10 148 128 160 128 5 0 12 -5 15 -10z m354 -22 c-7
-12 -12 -26 -11 -30 3 -11 -21 -25 -81 -47 -32 -11 -76 -30 -98 -42 -36 -18
-40 -23 -34 -48 4 -20 -2 -37 -25 -69 -17 -24 -28 -47 -25 -53 4 -5 1 -8 -6
-7 -7 2 -18 -8 -26 -22 -12 -23 -13 -24 -13 -4 0 12 -9 41 -20 65 -12 27 -20
66 -20 101 0 65 7 88 26 88 8 0 16 16 20 40 4 22 10 40 13 40 4 0 26 -16 49
-36 23 -19 56 -39 73 -44 46 -14 107 11 148 59 37 43 51 48 30 9z m31 -87 c0
-26 -6 -31 -72 -58 -40 -17 -83 -34 -95 -37 -13 -4 -23 -11 -23 -16 0 -5 18
-3 41 5 23 8 45 13 49 10 4 -3 21 2 36 10 16 8 34 15 40 15 5 0 -14 -50 -44
-110 -30 -62 -57 -130 -59 -154 -5 -43 -5 -44 39 -70 64 -37 107 -44 125 -20
14 19 14 19 29 0 22 -30 17 -52 -21 -101 -19 -25 -40 -65 -47 -88 -6 -23 -12
-43 -13 -45 -1 -1 -22 9 -46 23 -46 26 -87 27 -164 5 -16 -5 -122 -12 -234
-14 -112 -3 -208 -9 -215 -14 -12 -9 -90 -7 -106 3 -14 9 -12 52 6 120 9 33
17 87 18 121 1 50 8 71 39 123 21 35 36 66 33 68 -2 2 -21 -23 -41 -56 -21
-34 -39 -60 -40 -59 -6 7 16 131 26 151 l11 22 -21 -21 c-24 -22 -56 -127 -47
-151 3 -8 2 -12 -3 -8 -5 3 -12 19 -16 35 -4 17 -11 30 -17 30 -6 0 -7 -7 -4
-15 37 -97 44 -167 27 -266 l-13 -77 -34 14 c-39 16 -78 19 -69 4 3 -5 15 -10
26 -10 11 0 29 -5 41 -11 18 -10 16 -13 -29 -34 -58 -27 -118 -77 -139 -116
-16 -32 -19 -63 -4 -54 6 3 10 15 10 25 0 23 56 90 76 90 8 0 14 4 14 9 0 5 9
12 20 15 65 19 61 21 45 -18 -17 -41 -19 -72 -5 -81 5 -3 14 13 20 36 6 23 23
52 38 66 23 21 34 24 68 19 23 -3 68 -1 100 4 33 5 112 11 178 12 104 2 120 0
132 -16 12 -17 14 -17 41 2 28 20 93 42 126 42 15 0 14 -4 -7 -27 -65 -69
-114 -228 -99 -320 6 -34 5 -35 -15 -24 -12 6 -33 9 -47 5 -56 -14 -84 56 -64
162 6 32 20 75 30 96 11 21 16 38 11 38 -5 0 -19 -23 -33 -52 -20 -43 -24 -67
-24 -145 l0 -93 -70 -1 c-83 -2 -67 -2 -134 5 -39 4 -74 0 -125 -14 -55 -15
-91 -19 -160 -15 -48 2 -95 10 -103 17 -22 18 -52 81 -59 125 -10 64 11 142
69 248 29 55 71 152 92 215 91 275 147 341 300 355 85 8 109 -5 174 -89 44
-57 67 -126 48 -145 -10 -10 -1 -31 14 -31 5 0 9 7 9 15 0 8 32 49 70 91 63
67 70 80 68 110 -3 35 -3 35 102 90 57 29 108 54 112 54 4 0 8 -13 8 -29z
m391 -234 c15 -23 32 -60 38 -82 14 -50 14 -166 0 -225 -23 -99 -125 -372
-181 -482 -52 -104 -68 -125 -132 -183 l-73 -65 -104 -1 c-57 -1 -122 2 -144
6 -53 10 -293 113 -414 178 l-96 52 155 7 c124 6 172 4 240 -8 47 -9 100 -17
118 -18 24 -1 31 -5 26 -16 -11 -27 -25 -93 -20 -97 10 -11 26 10 26 33 0 14
7 39 16 57 31 61 35 62 66 7 15 -27 33 -50 38 -50 15 0 12 9 -10 41 -18 25
-41 129 -28 129 2 0 26 -20 51 -45 63 -60 93 -60 33 1 -61 61 -61 80 -1 53 25
-11 56 -19 68 -17 15 2 4 9 -38 24 -58 19 -60 21 -59 55 2 80 25 163 65 237
41 75 99 153 99 133 0 -5 12 -3 28 5 37 19 71 18 117 -6 l40 -20 -22 21 c-25
25 -100 37 -132 20 -36 -20 -24 -4 35 44 38 31 62 44 75 40 25 -8 46 36 65
132 8 41 14 77 14 79 0 15 19 -3 41 -39z m-436 -447 c28 -11 28 -30 -4 -101
l-16 -36 -63 19 c-58 17 -63 21 -57 41 3 12 7 27 8 32 5 23 20 35 50 44 43 12
52 13 82 1z m-83 -195 c11 -4 13 -18 8 -57 -9 -66 -52 -111 -97 -99 -28 8 -28
8 -24 77 2 38 8 72 15 76 13 9 78 10 98 3z m-519 -240 c48 -25 93 -45 99 -45
7 0 59 -23 117 -51 307 -149 524 -124 653 75 21 33 40 61 42 63 2 2 3 -103 2
-234 -1 -280 10 -524 24 -533 18 -11 30 -72 40 -210 8 -118 16 -164 46 -267 8
-28 -11 -31 -25 -4 -6 10 -15 40 -21 67 -19 90 -21 95 -30 89 -6 -3 -10 -48
-10 -100 l0 -93 -107 -9 c-60 -4 -214 -7 -343 -5 -129 2 -322 4 -428 5 l-192
2 -6 35 c-16 100 -60 300 -68 307 -15 16 -21 -17 -20 -121 l2 -113 -40 43 -40
43 16 48 c8 26 22 89 31 138 9 50 20 108 24 130 l9 40 1 -37 c0 -21 5 -38 10
-38 5 0 11 136 14 303 5 243 17 423 36 526 3 13 89 -15 164 -54z m-51 -1283
c112 -3 102 7 117 -117 l9 -70 -31 -28 c-40 -35 -106 -67 -137 -67 -35 0 -60
28 -61 69 0 27 -2 31 -8 17 -11 -27 -2 -62 20 -82 29 -27 100 -14 162 30 61
42 51 54 97 -118 18 -66 39 -135 47 -153 7 -19 11 -38 8 -42 -6 -10 -163 71
-218 113 -45 34 -50 25 -6 -12 71 -61 172 -122 210 -128 28 -5 45 -15 57 -33
9 -14 38 -54 65 -88 47 -61 50 -63 93 -63 l45 0 -7 -47 c-15 -102 -22 -106
-118 -72 -77 27 -118 59 -173 136 -25 35 -48 62 -50 59 -8 -8 59 -99 112 -151
68 -67 203 -164 160 -115 l-20 22 40 -16 c66 -28 66 -29 50 -139 -7 -54 -16
-101 -19 -104 -3 -4 -16 5 -29 19 -17 18 -46 31 -98 42 -96 22 -204 77 -251
127 -42 46 -87 159 -63 159 8 0 32 -24 53 -53 48 -64 87 -100 51 -46 -84 126
-103 157 -138 227 -49 98 -103 243 -130 348 l-21 81 20 149 c10 82 24 164 31
183 l12 34 11 -34 11 -34 97 -3z m381 2 l117 -6 0 -109 c0 -139 19 -253 75
-459 24 -90 43 -165 41 -167 -1 -2 -30 -6 -63 -9 -78 -8 -131 14 -202 87 -66
67 -91 109 -135 232 -55 151 -73 359 -37 426 11 19 18 22 49 17 20 -3 90 -8
155 -12z m584 8 c12 -8 21 -99 27 -282 3 -97 -9 -235 -30 -328 -16 -76 -12
-109 7 -54 6 18 15 32 20 32 18 0 9 -91 -16 -156 -24 -65 -25 -68 -9 -113 15
-42 15 -49 1 -83 -15 -37 -16 -37 -49 -26 -66 22 -123 71 -230 195 -40 47 -54
80 -72 173 -10 47 -22 101 -27 120 -10 38 -28 153 -25 157 1 2 17 -17 35 -41
77 -102 165 -148 266 -139 73 7 69 13 -9 13 -79 0 -119 15 -175 66 -78 70
-127 186 -136 318 l-5 71 26 -45 c14 -25 41 -61 61 -82 40 -41 146 -93 213
-103 60 -10 47 2 -24 20 -122 32 -210 98 -242 181 -9 25 -14 54 -10 69 6 24 8
25 99 26 76 1 148 5 277 17 8 1 21 -2 27 -6z m-145 -982 c45 -33 44 -31 57
-135 10 -81 39 -162 75 -210 15 -20 23 -40 20 -50 -4 -8 -37 -33 -75 -55 -37
-22 -71 -45 -74 -50 -18 -29 -27 -4 -24 70 3 78 2 81 -25 103 l-29 23 19 35
c19 35 23 162 9 257 -3 23 -4 42 -1 42 4 0 25 -14 48 -30z m-483 -206 c70 -41
79 -51 75 -87 -2 -18 -9 -42 -16 -55 -10 -20 -9 -26 13 -45 24 -21 25 -29 14
-83 -5 -21 -58 -54 -88 -54 -8 0 -18 12 -22 27 -11 47 -64 102 -133 139 -1 1
11 16 28 34 37 40 70 101 70 130 0 26 4 25 59 -6z m-249 -159 c0 -2 -10 -10
-22 -16 -21 -11 -22 -11 -9 4 13 16 31 23 31 12z m139 -48 c17 -21 -103 -71
-130 -54 -10 6 -19 14 -19 17 0 7 101 48 121 49 9 1 22 -5 28 -12z m251 -22
c0 -5 -5 -3 -10 5 -5 8 -10 20 -10 25 0 6 5 3 10 -5 5 -8 10 -19 10 -25z m604
-35 c24 -40 6 -32 -25 12 -14 20 -17 29 -8 26 7 -2 23 -20 33 -38z m-92 -21
l26 -50 -24 3 c-34 4 -76 74 -54 88 22 14 23 14 52 -41z m-1002 12 c0 -14 -6
-17 -24 -14 -16 3 -34 -5 -58 -26 -34 -30 -36 -30 -67 -15 -38 19 -40 27 -6
18 17 -4 32 -1 43 9 25 22 74 46 95 47 10 0 17 -7 17 -19z m32 -3 c-7 -7 -12
-8 -12 -2 0 14 12 26 19 19 2 -3 -1 -11 -7 -17z m468 -12 c0 -8 -7 -16 -15
-20 -12 -4 -13 -2 -2 14 14 24 17 25 17 6z m-378 -10 c15 -11 43 -67 36 -70
-2 0 -13 -6 -25 -13 -19 -11 -24 -8 -48 28 -15 21 -32 39 -38 39 -5 0 -4 7 3
15 15 18 49 19 72 1z m410 -18 c-7 -7 -12 -8 -12 -2 0 14 12 26 19 19 2 -3 -1
-11 -7 -17z m-484 -20 c17 -17 15 -28 -5 -28 -26 1 -58 26 -41 33 22 9 33 8
46 -5z m-208 -8 c0 -5 -9 -10 -20 -10 -10 0 -23 -7 -28 -16 -11 -20 -27 -1
-18 21 6 17 66 21 66 5z m158 -29 c12 -11 22 -21 22 -24 0 -13 -62 -28 -103
-25 -40 3 -47 6 -47 24 0 11 5 25 12 32 19 19 90 14 116 -7z m962 9 c0 -5 -4
-10 -10 -10 -5 0 -10 5 -10 10 0 6 5 10 10 10 6 0 10 -4 10 -10z m104 -16 c47
-6 63 -13 87 -38 37 -38 62 -83 55 -99 -2 -7 -5 -5 -5 4 -1 20 -49 65 -58 54
-5 -4 -2 -10 5 -12 16 -6 46 -63 32 -63 -5 0 -10 6 -10 13 0 7 -12 25 -27 39
-24 23 -31 25 -45 14 -17 -12 -17 -16 -2 -44 15 -31 12 -52 -7 -52 -5 0 -9 9
-9 20 0 26 -27 80 -40 80 -5 0 -21 20 -35 43 -28 48 -34 77 -12 59 7 -6 39
-14 71 -18z m-1233 -15 c-8 -22 -10 -22 -16 -5 -5 11 -3 21 6 26 19 12 21 7
10 -21z m594 21 c-3 -5 -12 -10 -18 -10 -7 0 -6 4 3 10 19 12 23 12 15 0z
m461 -26 c-20 -14 -42 -37 -50 -52 -13 -24 -15 -25 -21 -9 -8 20 14 50 59 78
43 26 54 11 12 -17z m-1054 -60 c18 -4 27 -9 21 -11 -23 -8 -82 18 -103 44
-32 41 -23 47 14 9 19 -19 50 -37 68 -42z m1101 32 c15 -22 15 -25 1 -30 -22
-8 -22 -8 -34 14 -21 40 9 54 33 16z m-29 -147 c25 -15 27 -19 11 -19 -20 0
-125 103 -125 123 0 7 19 -10 42 -37 23 -27 56 -57 72 -67z m-931 94 c-18 -2
-48 -2 -65 0 -18 2 -4 4 32 4 36 0 50 -2 33 -4z m1053 -18 c10 -15 13 -32 9
-42 -5 -12 -9 -14 -12 -6 -3 9 -10 10 -22 3 -12 -6 -31 -5 -55 1 -43 12 -46
36 -6 56 39 20 68 16 86 -12z m118 -8 c14 -19 17 -30 9 -38 -7 -7 -16 2 -31
31 -22 45 -10 49 22 7z m-14 -71 c0 -2 -9 -6 -20 -9 -11 -3 -20 -1 -20 4 0 5
9 9 20 9 11 0 20 -2 20 -4z"/>
<path d="M3070 5827 c0 -3 -7 -22 -15 -43 -12 -30 -12 -35 -2 -22 8 10 18 14
22 10 5 -4 6 0 2 9 -3 9 -1 21 5 27 6 6 6 12 -1 16 -6 4 -11 5 -11 3z"/>
<path d="M3026 5723 c-6 -14 -5 -15 5 -6 7 7 10 15 7 18 -3 3 -9 -2 -12 -12z"/>
<path d="M3003 5555 c0 -7 6 -11 14 -8 7 3 13 6 13 8 0 2 -6 5 -13 8 -8 3 -14
-1 -14 -8z"/>
<path d="M2896 5495 c-11 -8 -15 -15 -9 -15 6 0 16 7 23 15 16 19 11 19 -14 0z"/>
<path d="M2750 5352 c-60 -60 -61 -62 -15 -25 58 47 103 93 89 92 -5 -1 -38
-31 -74 -67z"/>
<path d="M2467 5032 c1 -8 3 -16 3 -18 0 -3 5 -2 10 1 6 3 10 11 10 16 0 6 -4
8 -9 5 -5 -4 -11 -3 -14 1 -2 5 -2 2 0 -5z"/>
<path d="M2575 4934 c-9 -14 -15 -27 -13 -30 2 -2 12 10 22 26 21 37 15 40 -9
4z"/>
<path d="M3100 5350 c0 -5 7 -7 15 -4 8 4 15 8 15 10 0 2 -7 4 -15 4 -8 0 -15
-4 -15 -10z"/>
<path d="M3300 5262 c0 -5 10 -17 23 -28 l22 -19 -19 23 c-11 12 -14 22 -8 22
11 0 16 -4 52 -50 10 -14 19 -20 20 -13 0 20 -51 73 -71 73 -10 0 -19 -4 -19
-8z"/>
<path d="M3229 5177 c19 -21 36 -37 38 -37 9 0 -23 38 -45 54 -21 15 -20 12 7
-17z"/>
<path d="M3300 5111 c0 -6 4 -13 10 -16 6 -3 7 1 4 9 -7 18 -14 21 -14 7z"/>
<path d="M3327 5033 c7 -71 11 -75 12 -10 1 31 -3 57 -8 57 -5 0 -6 -21 -4
-47z"/>
<path d="M2765 4951 c-22 -10 -54 -30 -71 -44 -25 -21 -30 -32 -26 -56 2 -17
6 -31 9 -31 2 0 19 11 37 25 31 23 119 66 103 49 -4 -4 7 -23 25 -41 26 -27
33 -42 34 -81 1 -26 -2 -54 -7 -63 -7 -14 -61 -34 -81 -30 -5 0 -8 -6 -8 -14
0 -9 -11 -27 -25 -41 -31 -31 -43 -78 -25 -99 16 -19 46 -19 54 0 4 12 25 15
108 13 l103 -2 -102 -3 c-57 -2 -103 -8 -103 -12 0 -5 14 -21 31 -35 25 -21
41 -26 87 -26 81 1 134 15 158 44 16 17 25 21 32 14 16 -16 42 9 42 40 0 14 8
34 18 45 16 19 16 20 -10 15 -21 -4 -34 3 -68 39 -24 23 -48 43 -56 43 -24 0
-44 43 -44 97 0 29 4 53 9 53 15 0 22 -18 11 -25 -8 -5 -7 -11 1 -21 15 -18
149 -17 149 1 0 18 -22 42 -55 59 l-30 15 48 -6 c39 -5 47 -3 47 11 0 37 -56
72 -126 78 -37 3 -39 1 -42 -27 -2 -16 -17 -44 -33 -63 -16 -18 -29 -36 -29
-40 3 -56 21 -147 32 -153 7 -5 27 -9 44 -9 17 0 33 -3 37 -6 12 -12 -6 -33
-33 -39 -15 -3 -36 -15 -46 -26 -23 -26 -35 -24 -69 11 -21 22 -34 28 -52 24
-36 -10 -31 29 7 43 38 14 53 53 48 120 -4 43 -10 56 -36 78 -18 15 -30 31
-27 35 6 9 -15 60 -24 60 -3 0 -24 -9 -46 -19z m270 -82 c-32 -9 -47 -3 -26
10 7 5 23 6 35 3 19 -5 18 -6 -9 -13z m-1 -44 c-4 -8 -10 -15 -15 -15 -4 0 -6
7 -3 15 4 8 10 15 15 15 4 0 6 -7 3 -15z m76 -5 c0 -5 -5 -10 -11 -10 -5 0 -7
5 -4 10 3 6 8 10 11 10 2 0 4 -4 4 -10z m-40 -270 c0 -5 -17 -9 -37 -9 -38 1
-38 1 -8 9 43 11 45 11 45 0z m-30 -44 c0 -18 -122 -39 -169 -28 -65 14 -48
31 36 35 43 1 90 4 106 5 17 1 27 -3 27 -12z"/>
<path d="M2722 4819 c-29 -29 -46 -52 -39 -55 14 -5 165 20 174 29 9 10 -26
57 -42 57 -8 0 -15 5 -15 10 0 23 -29 7 -78 -41z m118 -10 c0 -5 -4 -9 -10 -9
-5 0 -10 7 -10 16 0 8 5 12 10 9 6 -3 10 -10 10 -16z m-80 -4 c0 -8 -7 -15
-16 -15 -14 0 -14 3 -4 15 7 8 14 15 16 15 2 0 4 -7 4 -15z m40 5 c0 -5 -4
-10 -10 -10 -5 0 -10 5 -10 10 0 6 5 10 10 10 6 0 10 -4 10 -10z"/>
<path d="M3010 4769 c0 -20 72 -25 88 -6 8 9 -1 12 -39 12 -27 0 -49 -3 -49
-6z"/>
<path d="M2780 4750 c-34 -5 -41 -8 -27 -14 21 -10 87 1 87 14 0 6 -3 9 -7 8
-5 0 -28 -4 -53 -8z"/>
<path d="M2681 4574 c0 -11 3 -14 6 -6 3 7 2 16 -1 19 -3 4 -6 -2 -5 -13z"/>
<path d="M3002 4453 c-6 -2 -10 -8 -8 -11 5 -9 -97 -8 -111 1 -17 11 -27 -12
-13 -28 19 -23 108 -19 148 5 42 26 30 52 -16 33z m-39 -30 c-7 -2 -19 -2 -25
0 -7 3 -2 5 12 5 14 0 19 -2 13 -5z"/>
<path d="M3088 4403 c7 -3 16 -2 19 1 4 3 -2 6 -13 5 -11 0 -14 -3 -6 -6z"/>
<path d="M2830 4365 c29 -31 31 -31 17 0 -7 14 -18 25 -26 25 -10 0 -7 -8 9
-25z"/>
<path d="M3265 4513 c31 -80 89 -338 105 -475 7 -60 17 -108 21 -108 11 0 11
11 -2 128 -12 108 -25 172 -63 310 -14 52 -23 99 -19 104 3 6 1 8 -4 5 -6 -4
-13 6 -17 23 -3 17 -11 30 -17 30 -7 0 -8 -7 -4 -17z"/>
<path d="M3311 4458 c-1 -3 8 -27 19 -53 11 -26 18 -51 14 -56 -3 -5 0 -9 5
-9 6 0 11 6 11 13 0 13 -48 116 -49 105z"/>
<path d="M3195 4353 c4 -10 10 -62 13 -117 6 -126 -16 -260 -61 -368 -12 -28
-12 -36 -3 -32 17 6 33 42 58 124 37 122 35 410 -3 410 -7 0 -8 -7 -4 -17z"/>
<path d="M3151 3934 c0 -11 3 -14 6 -6 3 7 2 16 -1 19 -3 4 -6 -2 -5 -13z"/>
<path d="M3105 3841 c4 -8 2 -17 -6 -22 -9 -6 -10 -9 -2 -9 19 0 27 21 13 33
-10 9 -11 9 -5 -2z"/>
<path d="M3306 3838 c3 -4 1 -8 -4 -8 -6 0 -13 -8 -16 -17 -5 -13 0 -11 18 6
30 29 30 28 11 28 -8 0 -12 -4 -9 -9z"/>
<path d="M3047 2349 c-48 -28 -244 -89 -319 -100 -101 -14 -182 3 -256 53 -34
23 -42 25 -28 10 80 -91 246 -109 433 -46 89 29 226 92 203 93 -8 0 -23 -4
-33 -10z"/>
<path d="M3195 2350 c-23 -37 -226 -148 -422 -230 -57 -24 -101 -45 -98 -48 6
-6 220 81 315 128 41 21 99 54 128 74 30 20 59 33 65 29 7 -3 9 -2 4 2 -4 5 3
19 15 32 12 13 16 23 10 23 -6 0 -14 -5 -17 -10z"/>
<path d="M2123 2733 c9 -2 25 -2 35 0 9 3 1 5 -18 5 -19 0 -27 -2 -17 -5z"/>
</g>
</svg>
